<svg xmlns="http://www.w3.org/2000/svg" version="1" viewBox="0 0 476.823 509.806"><g fill-rule="evenodd"><path d="M38.709 266.93c0 134.1 88.631 242.86 197.96 242.86 109.3 0 197.93-108.76 197.93-242.86s-88.63-242.85-197.93-242.85c-109.33-.003-197.96 108.75-197.96 242.85h-.001z" stroke="#000" stroke-width=".036" stroke-miterlimit="10"/><path d="M42.921 267.36c0 131.87 87.119 238.83 194.58 238.83s194.58-106.96 194.58-238.83c0-131.9-87.12-238.86-194.58-238.86-107.46.004-194.58 106.96-194.58 238.86h.001z" stroke="#000" stroke-width=".036" stroke-miterlimit="10" fill="#dbaf94"/><path d="M56.097 223.48c-1.224-4.86-3.42-8.32-6.732-10.8s-7.776-3.82-12.996-3.85c-5.364-.11-13.608-.29-18.756 3.35-5.256 3.6-9.396 9.93-12.276 18.03-3.024 7.99-5.616 19.8-5.292 29.59.288 9.76 2.304 21.14 7.452 28.16 5.076 6.91 16.992 11.34 23.112 12.74 5.94 1.12 9.54-1.98 12.744-5.54 3.168-3.6 5.076-8.9 6.012-15.88l6.732-55.8z" stroke="#000" stroke-width=".036" stroke-miterlimit="10"/><path d="M50.085 283.38c-.576-1.83-1.296-2.59-2.16-2.41-.864.25-1.908 1.41-3.132 3.6-1.44 2.13-2.988 6.41-5.04 8.68-2.124 2.09-3.708 3.89-6.984 3.85-3.384-.18-8.388-1.98-12.492-4.57-4.14-2.74-9.216-6.37-12.024-11.05-2.952-4.75-4.5-10.41-5.076-17.1-.324-1.23-.108-4.03.504-8.43.612-4.53 1.548-12.31 3.348-18.03 1.764-5.91 3.996-12.28 6.984-16.35 2.952-4.07 6.48-6.62 10.584-7.95 3.888-1.52 9.54-.98 13.212-.72 3.528.18 6.192.82 8.424 1.94 2.124 1.08 3.78 2.52 4.824 4.32 1.044 1.62.684 4.64 1.44 5.76.684 1.04 1.512 1.33 2.628.72 1.008-.72 2.088-1.98 3.384-4.32-2.808 20.66-5.616 41.36-8.424 62.06z" fill="#dbaf94"/><path d="M45.297 235.29c-.504-1.51-3.132-4.11-5.544-5.29-2.556-1.34-6.192-2.77-9.396-1.95-3.348.79-7.236 2.7-9.864 6.99-2.664 4.28-5.004 11.8-5.508 18.28-.576 6.41.036 15.45 2.376 19.73 2.304 4.11 7.776 5.19 11.556 5.04 3.6-.28 9.072-4.46 10.584-6.26 1.368-1.87.108-4.79-1.692-4.57-1.836.18-6.228 5.07-8.892 5.79-2.844.61-5.472-.1-7.2-2.16-1.728-2.19-2.664-5.79-2.664-10.36-.072-4.68.828-12.64 2.412-17.07 1.476-4.46 4.32-7.99 6.732-9.61 2.376-1.76 5.22-1.33 7.704-.5 2.376.82 5.076 4.86 6.732 5.29 1.512.21 3.096-1.88 2.664-3.35zm375.483-9.72c1.18-4.83 3.38-8.39 6.73-10.84 3.27-2.52 7.59-3.74 12.96-3.81 5.33-.11 13.53-.29 18.79 3.35 5.18 3.6 9.22 9.93 12.24 18.03 2.92 7.99 5.51 19.8 5.29 29.59-.39 9.76-2.41 21.14-7.45 28.16-5.18 6.91-17.14 11.34-23.08 12.74-6.04 1.11-9.64-1.98-12.74-5.55-3.2-3.6-5.11-8.89-6.01-15.87l-6.73-55.8z" stroke="#000" stroke-width=".036" stroke-miterlimit="10"/><path d="M426.79 285.47c.54-1.83 1.26-2.59 2.16-2.41.75.25 1.8 1.4 3.13 3.6 1.4 2.12 2.95 6.41 5.04 8.68 2.05 2.09 3.6 3.89 6.98 3.85 3.28-.18 8.32-1.98 12.5-4.57 4.03-2.7 9.14-6.44 12.02-11.09 2.92-4.79 4.43-10.33 5.08-17.06.28-1.23.07-4.03-.51-8.43-.72-4.53-1.65-12.31-3.35-18.03-1.8-5.91-4.03-12.28-6.98-16.35-3.06-4.07-6.59-6.62-10.58-7.95-4.07-1.52-9.65-.98-13.25-.72-3.64.18-6.3.82-8.43 1.94-2.26 1.08-3.81 2.52-4.78 4.32-1.16 1.62-.76 4.64-1.44 5.76-.76 1.04-1.7 1.33-2.67.72-1.04-.72-2.16-1.98-3.35-4.32 2.81 20.66 5.62 41.36 8.43 62.06z" fill="#dbaf94"/><path d="M431.58 237.38c.43-1.52 3.02-4.11 5.54-5.3 2.45-1.33 6.12-2.77 9.36-1.94 3.28.79 7.16 2.7 9.86 6.98 2.52 4.29 4.97 11.81 5.55 18.29.47 6.41-.11 15.45-2.41 19.73-2.45 4.1-7.82 5.18-11.52 5.04-3.71-.29-9.18-4.46-10.59-6.26-1.4-1.88-.25-4.79 1.66-4.58 1.73.18 6.19 5.08 8.93 5.8 2.7.54 5.47-.14 7.2-2.2 1.65-2.23 2.48-5.72 2.62-10.33-.07-4.68-.86-12.63-2.37-17.06-1.55-4.57-4.39-7.92-6.73-9.65-2.49-1.8-5.33-1.26-7.71-.47-2.48.83-5.15 4.86-6.73 5.3-1.62.21-3.2-1.88-2.66-3.35zm-227.45-20.27c0 7.05 5.72 12.78 12.78 12.78 7.05 0 12.78-5.73 12.78-12.78 0-7.06-5.73-12.78-12.78-12.78-7.06 0-12.78 5.72-12.78 12.78z" stroke="#000" stroke-width=".036" stroke-miterlimit="10"/><path d="M210.57 213.76c0 1.91 1.55 3.49 3.49 3.49 1.91 0 3.46-1.58 3.46-3.49s-1.55-3.49-3.46-3.49c-1.94 0-3.49 1.58-3.49 3.49z" stroke="#000" stroke-width=".036" stroke-miterlimit="10" fill="#fff"/><path d="M192.43 183.27c3.42-1.19 10.4-2.16 15.69-2.49 5.22-.32 11.42 0 15.38.83 3.92.79 7.16 2.59 7.63 3.85.25 1.19-2.67 2.92-5.98 3.1-3.53.04-9.54-2.48-14.29-2.56-4.9-.1-10.3 1.27-13.97 2.02-3.71.72-6.12 2.31-7.67 2.27-1.54-.25-2.34-2.09-1.69-3.27.47-1.27 1.41-2.74 4.9-3.75zm84.2 33.84c0 7.05-5.72 12.78-12.78 12.78-7.05 0-12.78-5.73-12.78-12.78 0-7.06 5.73-12.78 12.78-12.78 7.06 0 12.78 5.72 12.78 12.78z" stroke="#000" stroke-width=".036" stroke-miterlimit="10"/><path d="M266.48 213.51c0 1.91-1.58 3.49-3.49 3.49s-3.49-1.58-3.49-3.49 1.58-3.46 3.49-3.46 3.49 1.55 3.49 3.46z" stroke="#000" stroke-width=".036" stroke-miterlimit="10" fill="#fff"/><path d="M290.24 185.54c-3.2-1.59-9.32-3.6-14.04-4.54-4.82-1.04-10.48-1.51-14.04-1.26-3.67.29-6.88 1.48-7.27 2.74-.36 1.11 2.02 3.2 5.18 3.88 3.14.44 8.79-1.11 13.22-.61 4.24.47 9.25 2.7 12.52 3.93 3.17 1.11 5.3 3.16 6.77 3.24 1.44-.04 2.09-1.73 1.8-2.99-.36-1.26-1.22-2.95-4.14-4.39zm-216.431-1.95c1.656-4.07 7.848-13.71 12.204-19.91 4.32-6.15 10.908-15.04 13.392-16.95 2.305-2.02 2.555 1.29.615 5.07-2.091 3.75-8.535 10.88-12.531 16.92-4.068 5.98-9.252 15.66-11.52 18.36-2.412 2.45-3.78.36-2.16-3.49zm-3.06 7.78c-.936 1.08-3.456 5.4-3.384 6.84.036 1.29 2.52 1.58 3.564.72.936-1.01 1.836-5.51 1.872-6.7-.072-1.4-1.224-1.83-2.052-.86zm36.211-53.5c-1.18.65-4.75 4.5-5 5.73-.29 1.22 1.94 2.23 3.2 1.62 1.16-.83 3.17-4.76 3.57-5.94.21-1.26-.65-2.2-1.77-1.41zm279 28.3c1.88 2.52 5.08 9.65 7.1 14.58 1.76 4.79 4.1 11.99 4.1 14.11-.07 1.98-2.77.94-4.21-1.62-1.58-2.63-2.81-9.11-4.64-13.61-1.88-4.68-6.09-11.3-6.41-13.61-.51-2.23 2.19-2.41 4.06.15zm-3.92-4.75c-.25-1.05-1.98-4.04-2.95-4.54-1.01-.47-3.06.76-2.85 1.73.11.86 2.81 3.1 3.82 3.64.97.46 2.05-.04 1.98-.83zm16.92 41.11c0-1.12-.22-4.29-1.04-5.04-.87-.61-3.14.11-3.35 1.19-.25.86 1.4 3.6 2.19 4.32.65.64 1.98.36 2.2-.47zM234.98 419.25c-9.65-1.01-13.5-.72-24.52-4.07-11.05-3.42-28.87-9.18-41.11-16.06-12.2-6.94-21.85-14.5-31.57-25.05-9.68-10.62-19.87-25.09-26.14-37.84-6.26-12.78-9.9-25.27-11.16-38.12-.18-2.63.54-5.04 2.16-7.63 1.59-2.63 6.92-5.87 7.38-7.64.33-1.76-2.48-4.42-4.93-2.98-2.52 1.44-7.449 5.9-9.789 11.16-2.484 5.07-3.888 14.43-4.356 19.33-.468 4.82 1.044 8.13 1.908 9.54.828 1.33 2.34.83 2.988-1.66.504-2.55.648-7.09.288-13.61 2.412 12.68 6.771 25.24 13.611 38.13 6.76 12.85 15.15 27.54 26.67 38.66 11.56 10.98 28.55 20.49 41.4 26.97 12.64 6.33 24.59 8.56 33.77 11.16 9 2.48 13.25 3.06 20.12 3.81 6.84.61 13.79.61 20.7 0 6.88-.75 11.06-1.33 20.16-3.81 9.08-2.6 21.03-4.83 33.77-11.16 12.64-6.48 29.81-15.99 41.37-26.97 11.37-11.12 19.9-25.81 26.71-38.66 6.77-12.89 11.16-25.45 13.61-38.13-.36 6.52-.33 11.06.25 13.61.54 2.49 2.09 2.99 2.99 1.66.79-1.41 2.26-4.72 1.9-9.54-.54-4.9-1.94-14.26-4.35-19.33-2.41-5.26-7.35-9.72-9.79-11.16-2.56-1.44-5.3 1.22-4.9 2.98.43 1.77 5.62 5.01 7.34 7.64 1.52 2.59 2.38 5 2.2 7.63-1.26 12.85-4.93 25.34-11.16 38.12-6.3 12.75-16.45 27.22-26.14 37.84-9.72 10.55-19.4 18.11-31.6 25.05-12.24 6.88-30.06 12.64-41.11 16.06-11.02 3.35-14.84 3.06-24.52 4.07-9.65 1.04-4.47 1.04-14.15 0zm-6.48 82.58c-4.36-.28-15.7-2.09-23.04-3.85-7.38-1.84-18-4.61-20.74-6.08-2.7-1.55.22-2.88 4.47-2.45 4.17.39 13.28 3.78 20.37 5.29 6.99 1.44 18.04 2.56 21.35 3.78 3.06 1.19 1.84 3.31-2.41 3.31zm8.35-.07c1.26.4 6.34 1.01 7.6.58 1.04-.51.54-3.17-.69-3.57-1.4-.54-5.68.22-6.87.76-1.23.5-1.33 1.62-.04 2.23zm-63.18-13.57c1.15.79 5.87 2.66 7.2 2.55 1.23-.35 1.37-2.77.29-3.63-1.19-.87-5.62-1.26-6.88-1.05-1.29.11-1.72 1.34-.61 2.13z" stroke="#000" stroke-width=".036" stroke-miterlimit="10"/><path d="M119.67 92.657c1.8 7.703 1.41 14.793-1.33 21.673-2.81 6.84-9.94 13.03-15.01 19.15-5.149 5.94-8.893 7.92-15.409 16.92-6.66 9.07-18.108 27.32-23.796 37.12-5.688 9.64-6.156 15.58-10.152 20.59-4.248 4.82-10.872 9.29-14.328 8.53-3.456-.94-4.968-1.84-5.904-13.39-.9-11.77-3.996-37.91.288-56.2 4.176-18.43 17.316-40.86 24.552-52.989C65.673 82 70.641 78.689 76.689 74.945s11.772-5.076 17.748-3.6c-4.824-7.164-3.276-14.725 4.5-23.364 7.813-8.712 22.643-19.944 42.153-27.864C160.75 12.161 188.11 3.485 215.4.893c27.07-2.664 63.64 1.26 87.08 3.563 23.29 2.269 36.04 4.572 51.98 9.973 15.81 5.327 30.89 12.6 42.48 21.672 11.31 9 18.26 19.188 25.85 31.968 7.6 12.672 15.95 29.988 19.91 43.741 3.89 13.5 3.2 24.3 3.64 37.69.39 13.43 1.47 30.17-1.34 42.44-2.95 12.21-11.37 26.39-16.12 30.21-4.83 3.67-5.62 4.21-12.68-8.25-7.27-12.74-16.99-34.7-29.98-66.99-33.84-.04-63.26-1.44-89.75-4.07-26.5-2.74-45.29-7.13-67.9-12.06-22.68-5.11-48.53-11.3-66.85-17.75-18.29-6.44-32.11-13.101-42.05-20.373z"/><path d="M106.6 83.117c-3.2-2.52-7.807-5.652-12.271-6.479-4.464-1.08-9.108-2.448-14.616 1.044-5.832 3.6-12.816 11.088-19.008 20.376-6.228 9.182-13.5 23.432-17.532 34.592-4.104 11.09-5.22 20.92-6.408 31.72-1.224 10.69-1.224 24.52-.684 32.29.432 7.67 1.008 12.78 3.672 13.79 2.52.9 6.876-1.76 11.7-8.14 4.788-6.58 11.52-20.91 16.992-30.2 5.292-9.22 8.532-16.49 15.12-24.88 6.516-8.49 18.395-18.5 23.975-25.59 5.33-7.24 7.88-12.06 8.78-17.1.83-5.079-1.65-9.327-3.27-12.891-1.73-3.672-3.28-6.048-6.45-8.532z" stroke="#000" stroke-width=".036" stroke-miterlimit="10" fill="#ffba35"/><path d="M94.401 95.681c-1.656 5.179-3.708 13.179-7.956 20.629-4.32 7.34-11.844 15.08-17.316 23.07-5.58 7.92-12.06 14.91-15.552 24.02-3.564 9-5.292 24.8-5.472 29.52-.288 4.57 2.772 2.19 4.032-2.13 1.188-4.6.252-16.77 3.168-24.26 2.808-7.45 9.36-14.04 13.68-20.05 4.248-5.94 7.596-10.01 11.844-15.7 4.212-5.98 9.864-12.42 13.212-19.19 3.132-6.8 5.508-16.232 5.76-20.66.219-4.429-3.492-6.229-4.32-5.4-.936.827.324 4.859-1.08 10.151z" stroke="#000" stroke-width=".036" stroke-miterlimit="10"/><path d="M153.44 105.76c-5.72-2.16-11.41-4.54-17.06-7.415-5.84-2.916-11.52-5.904-17.07-9.648-5.61-3.888-12.27-8.748-16.09-13.176-3.923-4.5-6.983-8.748-6.803-13.429.108-4.752.72-8.783 7.813-14.867 7.05-6.265 20.52-15.444 34.56-21.853 14-6.408 31.5-12.888 48.99-16.235 17.5-3.492 37.16-3.853 54.94-4.141 17.75-.359 34.13.9 50.4 2.376 16.09 1.368 30.92 2.16 45.86 6.265 15.02 4.104 30.96 11.411 42.99 18.18 11.81 6.696 20.16 13.68 27.43 21.78 7.16 7.991 11.27 18 15.37 25.991 4 7.849 5.83 13.32 8.86 20.992 2.95 7.59 6.98 14.65 8.78 24.51 1.66 9.83 1.51 23.37 1.51 34.09-.07 10.73.11 20.38-1.98 29.63-2.26 9.11-7.92 19.98-11.12 24.99-3.2 4.78-4.97 7.3-8.06 4.24-3.28-3.13-5.33-10.4-11.02-22.78-5.83-12.6-13.35-29.56-23.26-51.84-22.14.39-45.25-.69-70.7-3.24-25.56-2.67-58.43-8.25-80.71-12.32-22.18-4.21-37.55-8.38-51.52-12.13-14.07-3.71-24.55-6.98-32.11-9.97z" stroke="#000" stroke-width=".036" stroke-miterlimit="10" fill="#ffba35"/><path d="M139.22 46.613c13.03-2.052 51.41-8.316 80.28-9.36 28.76-1.188 64.44.756 91.08 2.772 26.6 2.124 54 6.552 67.03 9.396 12.64 2.628 10.05 5.904 9.18 6.372-.86.288-3.38-2.34-14.51-4.284-11.44-2.124-29.88-5.724-52.95-7.739-23.33-2.053-60.09-4.645-84.85-4.429-24.7.072-46.62 3.601-62.03 5.328-15.41 1.656-24.23 4.284-29.77 4.681-5.62.251-16.31-.758-3.46-2.737zm-3.74 9.683c14.36 3.168 52.27 14.185 80.53 20.269 28.26 5.868 64.08 12.096 87.73 15.084 23.51 2.916 37.15 3.132 52.6 2.448 15.26-.792 31.39-5.616 39.09-6.696 7.6-1.08 7.64-.864 6.63.107-1.12.9-4.79 3.133-12.96 5.04-8.39 1.801-20.02 5.58-36.4 5.904-16.49.145-40.1-1.691-61.41-4.392-21.42-2.7-41.37-6.372-65.67-11.557-24.44-5.363-63.21-15.659-79.23-19.8-15.92-4.212-14.01-3.672-15.81-4.752-1.91-1.151-9.4-4.75 4.9-1.655zM126.3 72.46c13.82 4.104 54.1 20.7 81.68 28.26 27.5 7.38 57.74 12.67 81.97 15.88 24.09 2.98 43.6 2.55 61.45 2.59 17.72-.04 36.36-2.85 44.28-2.59 7.78.07 8.68 2.41 2.13 3.56-6.88 1.01-23.69 3.2-42.09 3.13-18.57-.11-44.49-1.04-67.6-3.63-23.19-2.85-47.06-7.02-69.66-12.53-22.58-5.62-49.14-15.23-64.59-20.378-15.51-5.111-23.07-8.027-27.68-10.296-4.68-2.483-13.57-8.027.11-3.996zm291.7 97.7c1.95 3.86 6.16 12.57 7.64 16.96 1.29 4.28 1.15 8.35.68 8.86-.5.36-1.22-1.73-3.42-6.27-2.27-4.68-6.48-13.75-10.15-20.99-3.92-7.27-10.37-17.46-12.38-21.96-1.98-4.5-.36-5.97.97-4.82 1.4 1.08 4.57 7.45 6.87 11.2 2.16 3.7 4.15 7.74 5.94 10.72 1.48 2.78 2.02 2.42 3.85 6.3zm-199.65-31.71c-4.36-.51-15.41-3.42-22.61-5.69-7.31-2.34-17.57-6.08-20.23-7.74-2.63-1.73.5-2.92 4.68-2.05 4.07.72 12.96 4.82 19.87 6.87 6.8 2.09 17.82 3.96 20.99 5.48 2.91 1.33 1.51 3.52-2.7 3.13zm8.35.61c1.26.47 6.23 1.55 7.52 1.15 1.16-.47.8-3.06-.39-3.6-1.26-.54-5.83-.32-6.91.22-1.34.36-1.41 1.62-.22 2.23zm-61.88-18.61c1.04.86 5.58 3.06 6.94 3.09 1.3-.18 1.44-2.66.58-3.56-1.08-.9-5.54-1.76-6.73-1.62-1.3.04-1.84 1.15-.79 2.09zM71.793 292.24c2.484-3.6 10.332-11.88 15.912-17.06 5.436-5.22 13.675-12.53 16.525-14.01 2.63-1.51 2.16 1.8-.43 5.08-2.81 3.17-10.479 9.07-15.627 14.11-5.22 4.97-12.132 13.65-14.904 15.73-2.844 1.95-3.852-.36-1.476-3.85zm316.617-26.28c3.17 2.84 10.51 11.7 15.09 17.82 4.57 5.98 10.69 15.08 11.95 18.04 1.01 2.77-2.05 2.01-5.01-1.01-2.95-3.21-7.84-11.49-12.16-17.21-4.43-5.69-12.24-13.79-13.86-16.67-1.62-3.09.68-3.74 3.99-.97z" stroke="#000" stroke-width=".036" stroke-miterlimit="10"/></g></svg>