<svg xmlns="http://www.w3.org/2000/svg" version="1" viewBox="0 0 540.593 542.496"><g stroke="#000" stroke-width=".036" stroke-miterlimit="10" fill-rule="evenodd"><path d="M71.355 288.66c0 134.1 88.595 242.86 197.92 242.86 109.34 0 197.97-108.76 197.97-242.86S378.615 45.8 269.275 45.8c-109.33.004-197.92 108.76-197.92 242.86h-.005z"/><path d="M75.531 289.06c0 131.9 87.119 238.86 194.58 238.86s194.58-106.96 194.58-238.86c0-131.87-87.12-238.83-194.58-238.83-107.46.002-194.58 106.96-194.58 238.83h.001z" fill="#daaf95"/><path d="M190.95 502.36c-3.82-2.16-12.96-9.15-18.69-14.01-5.83-4.97-13.82-12.42-15.62-14.97-1.84-2.6 1.62-2.49 5.11-.11 3.53 2.34 10.05 9.43 15.66 14.07 5.55 4.47 14.8 10.66 17.21 13.18 2.09 2.41.07 3.85-3.67 1.84zm7.45 3.78c.9.93 5.15 3.88 6.48 3.99 1.19.07 1.91-2.55 1.04-3.45-1-.98-5.25-2.56-6.48-2.52-1.29-.18-2.01.93-1.04 1.98zm-49.86-41.12c.65 1.23 3.96 4.97 5.22 5.55 1.22.36 2.38-1.91 1.91-3.06-.69-1.33-4.39-3.67-5.58-4.11-1.23-.39-2.2.29-1.55 1.62zm65.38-231.76c0 8.2 6.94 14.86 15.48 14.86 8.56 0 15.51-6.66 15.51-14.86 0-8.21-6.95-14.87-15.51-14.87-8.54 0-15.48 6.66-15.48 14.87z"/><path d="M221.73 229.37c0 2.23 1.87 4.03 4.21 4.03s4.21-1.8 4.21-4.03-1.87-4.03-4.21-4.03-4.21 1.8-4.21 4.03z" fill="#fff"/><path d="M196.35 202.22c2.81-2.62 8.75-6.58 13.5-8.96 4.68-2.45 10.37-4.5 14.29-5.18 3.82-.76 7.49 0 8.24 1.15.54 1.08-1.4 4.25-4.42 5.76-3.14 1.37-9.62 1.08-13.9 2.88-4.54 1.73-8.93 5.58-12.06 7.81s-4.75 4.93-6.23 5.47c-1.58.33-2.73-1.33-2.63-2.88.15-1.55.29-3.56 3.21-6.05zm98.24 31.61c0 8.21-6.91 14.87-15.48 14.87s-15.51-6.66-15.51-14.87S270.54 219 279.11 219s15.48 6.62 15.48 14.83z"/><path d="M282.28 229.66c0 2.23-1.91 4.03-4.21 4.03-2.34 0-4.25-1.8-4.25-4.03 0-2.24 1.91-4.04 4.25-4.04 2.3 0 4.21 1.8 4.21 4.04z" fill="#fff"/><path d="M315.69 203.52c-2.45-2.63-7.27-6.59-11.13-8.96-3.96-2.45-8.67-4.5-11.77-5.19-3.09-.75-6.33 0-6.8 1.15-.58 1.08 1.11 4.25 3.67 5.76 2.48 1.37 7.78 1.08 11.45 2.88 3.56 1.73 7.34 5.58 9.93 7.82 2.45 2.23 3.89 4.93 5.15 5.47 1.23.32 2.13-1.33 2.16-2.88-.21-1.55-.32-3.57-2.66-6.05zm-56.27 247.93c-7.09-1.11-9.94-.79-18.04-4.53-8.13-3.82-21.24-10.23-30.24-17.93-9-7.71-16.12-16.17-23.25-27.94-7.17-11.81-14.62-27.93-19.26-42.19-4.61-14.26-7.27-28.15-8.21-42.52.83-1.51 1.94-3.24 3.35-5.58 1.44-2.41 4.32-6.08 4.89-8.1.4-2.16.22-5.94-2.34-3.96-2.59 1.98-9.18 11.6-13.1 16.06-4.03 4.39-9.14 7.85-10.76 10.37-1.66 2.52-.62 4.1.79 4.17 1.37-.25 4.64-3.09 7.05-4.93 2.31-1.8 4.32-3.74 6.45-5.83 2.01 16.78 5.33 32.33 10.47 47.63 5.08 15.19 11.13 30.71 19.66 43.09 8.46 12.2 21.02 22.82 30.46 30.06 9.28 7.09 18.03 9.58 24.84 12.46 6.58 2.7 9.72 3.56 14.83 4.24 4.93.69 10.19.69 15.23 0 5.04-.68 8.13-1.54 14.83-4.24 6.66-2.88 15.55-5.37 24.87-12.46 9.33-7.24 21.89-17.86 30.46-30.06 8.24-12.49 14.69-28.66 19.62-43.09 5-14.4 8.17-28.3 10.04-42.52 4.22 5.58 7.49 8.93 9.83 10.19 2.38 1.12 4.39-1.66 4.11-3.02-.51-1.48-3.82-2.92-6.45-5.3-2.73-2.44-6.19-5.32-9.39-9.07-3.32-3.89-7.64-11.99-9.9-13.75-2.34-1.84-4 1.4-3.6 3.35.43 1.87 4.06 5.79 6.04 8.31 1.84 2.52 3.5 4.68 5.11 6.63-.93 14.33-2.59 23.61-7.19 37.87-4.61 14.26-12.1 30.38-19.23 42.19-7.16 11.77-14.26 20.23-23.26 27.94-9 7.7-22.1 14.11-30.24 17.93-8.13 3.74-10.94 3.42-18.03 4.53-7.13 1.15-3.31 1.15-10.44 0z"/><path d="M165.93 474.02a317.16 317.16 0 0 0 27.47 19.84c9.14 5.87 20.91 10.62 26.96 15.08 5.9 4.36 7.67 6.41 8.35 10.88.58 4.32 3.03 12.63-4.89 15.08-8.21 2.27-26.36-.04-43.17-.94-16.95-.93-39.81-4.42-56.91-4.24-17.1.07-30.965 3.92-44.645 5.18-13.68 1.3-28.296 5-36.756 2.38-8.496-2.88-12.528-14.04-13.752-18.9-1.26-5.01.864-8.28 6.372-10.37-10.512-13.79-17.964-27.94-23.04-43.42-5.076-15.51-7.236-36.25-6.876-48.6.288-12.38 3.276-20.52 8.82-24.98-1.692-13.61-2.412-24.84-2.448-33.99 0-9.21 3.276-13.32 2.448-20.77-.972-7.49-5.58-14.9-7.848-24.05-2.448-9.43-6.804-22.03-5.868-31.14 1.044-9.03 4.788-16.45 11.772-22.64-.936-18.29.72-33.19 5.4-45.54 4.464-12.28 11.628-20.59 22.068-27.86 10.512-7.35 23.94-12.64 40.716-16.02-5.004-8.07-7.128-15.41-6.372-22.18.828-6.91 4.608-13 10.764-18.4 6.012-5.32 14.22-9.93 25.025-13.68-6.41-15.368-7.06-27.5-1.95-36.824 5.11-9.432 15.77-15.444 32.37-18.864-3.03-9.18-1.44-17.136 4.89-24.552 6.45-7.452 20.45-15.516 32.87-19.332 12.24-3.816 30.96-5.148 40.21-3.312 9 1.836 11.52 9.756 14.22 14.184 2.7 4.284 3.31 7.956 1.98 11.304 1.33-7.128 3.78-12.852 7.35-17.46 3.49-4.572 6.22-6.768 13.75-9.9 7.52-3.276 20.23-8.136 30.89-9.432 10.54-1.296 23.76 0 31.86 1.404 7.92 1.26 8.38 4.464 15.69 6.156 7.27 1.44 18.25.072 27.51 3.276 9.14 3.24 18.82 8.64 26.96 16.056 7.99 7.38 14 20.916 21.1 27.828 7.05 6.768 14.04 8.424 21.09 12.744 7.06 4.212 16.24 7.488 20.59 12.744 4.11 5.256 5.12 12.132 4.4 18.396-.8 6.224-3.64 12.134-8.82 18.394 13.03 11.77 23.54 24.09 32.36 37.77 8.64 13.57 16.34 28.36 19.62 43.41 3.24 14.98 2.95 29.95-.47 45.76 17.86 16.85 29.85 30.6 36.79 42.23 6.77 11.37 6.95 16.02 3.89 26.42-3.2 10.51-18.54 23.11-22.53 35.86-3.96 12.6-2.31 27.82-1.01 39.16 1.19 11.2 8.78 17.14 8.35 27.83-.54 10.66-4.25 22.18-11.27 35.39 5.87 12.06 10.15 23.11 13.25 33.98 3.02 10.77 6.37 21.03 4.9 30.21-1.7 9.03 1.47 21.96-14.22 24.05-15.99 1.94-58.54-11.24-79.49-11.78-20.85-.57-30.21 6.02-44.61 8.5-14.68 2.41-28.26 6.44-41.68 6.12-13.54-.47-32.3-2.56-37.8-8.5-5.33-6.22-3.17-17.24 5.9-27.36 9.18-10.18 34.6-21.42 48.06-32.58 13.14-11.23 21.46-20.7 30.92-33.94 9.44-13.32 17.79-28.23 25.49-45.29-7.49-15.19-11.19-27.79-11.27-38.23-.03-10.48 3.42-18.36 10.77-24.09-5.33-3.81-7.63-10.19-7.35-19.8.4-9.68 9.29-25.48 9.33-37.29-.11-11.78-3.39-22.68-9.83-33.02-9.76 5.62-17.78 7.42-24.52 5.55-6.87-2.05-13.03-8.5-15.69-16.99-2.67-8.61 2.84-25.6 0-33.48-2.99-8-12.93-7.42-17.17-13.68-4.25-6.34-6.77-16.53-7.85-23.62-1.15-7.24 3.85-13.07 1.01-18.86-3.1-5.91-12.46-12.68-18.65-15.59-6.34-2.92-13.21 1.47-18.15-1.41-4.96-2.95-9.39-7.38-10.8-16.05-1.36-8.929 5.33-27.469 2.45-36.325-3.09-8.748-12.6-13.068-20.59-16.02-8.21-2.916-20.38-2.16-27.47-1.908-7.13 0-11.34 2.592-14.72 2.376-3.39-.252-5.19-1.512-5.4-3.78-.04 4.932-1.95 8.928-5.87 12.276-4.14 3.204-10.87 4.932-17.68 7.524-6.84 2.556-17.28 4.536-22.57 8.028-5.29 3.563-7.96 7.812-8.82 12.744-.97 4.716 3.42 10.405 3.46 15.555.07 5.14.5 9.9-3.42 14.65-4.25 4.53-17.07 7.16-21.1 12.74-4.03 5.62-2.05 13.54-2.95 20.27-.94 6.55 1.37 13.32-2.95 18.9-4.54 5.36-17.57 8.35-23.55 13.68-6.08 5.36-10.62 10.3-12.24 18.4-1.65 8.1 4.18 21.38 2.92 29.73-1.48 8.1-7.81 10.8-10.8 19.33-3.06 8.54-7.24 19.12-6.84 31.61.39 12.39 8.64 30.6 9.32 42.59.51 11.88-4.71 19.8-5.4 28.76-.83 8.93-.93 17.86 1.48 24.56 2.45 6.48 11.3 8.06 13.25 14.61 1.9 6.55 1.15 14.69-1.98 24.55 11.23 15.48 20.41 27.29 27.97 35.86 7.52 8.53 12.89 13.43 16.67 15.08z"/><path d="M18.759 391.48c-3.816 1.58-6.336 5.76-7.848 13.21-1.584 7.34-2.736 18.54-.972 30.67 1.836 12.13 6.264 29.02 11.772 41.51 5.436 12.45 12.204 23.07 20.592 32.54-3.384.69-5.616 2.27-6.84 4.75-1.332 2.49-1.872 6.63-.504 9.9 1.296 3.06 2.988 7.67 8.82 8.97 5.904 1.19 15.264-.11 25.992-1.41 10.692-1.4 24.048-5.83 37.299-6.62 13.07-.86 26.46.69 40.71 1.87 14.15 1.08 31.94 4.11 43.64 4.75 11.55.54 20.19.44 25.52-1.43 5.22-2.09 7.13-6.52 5.87-10.37-1.41-3.89-5.98-7.35-13.72-12.75-7.95-5.5-21.92-11.66-32.87-19.83-11.01-8.25-23-19.33-32.36-29.23-9.43-9.98-17.14-19.95-23.54-30.21-1.7 3.21-2.63 6.84-2.96 11.34-.46 4.36-.46 10.91.98 15.09 1.51 4.14 7.74 7.88 7.84 9.43 0 1.33-5.9 1.3-7.84-.94-2.09-2.44-3.93-7.16-4.4-12.74-.39-5.65.15-13.9 1.48-20.31 1.22-6.55 4.86-12.52 5.36-17.92.26-5.44-.93-10.01-3.42-14.15-2.48-4.28-9.1-5.58-11.26-10.84-2.24-5.43-1.88-14.58-1.98-20.77-.18-6.3-.04-10.87.97-16.06.86-5.14 4.28-8.35 4.43-14.61-.08-6.44-2.16-15.91-3.93-23.11-1.87-7.27-5.795-12.31-6.371-19.84-.504-7.7 1.401-17.75 2.951-24.98 1.33-7.2 2.99-12.89 5.4-17.61 2.34-4.71 7.09-7.05 8.82-10.36 1.55-3.39 1.23-4.79.97-9.9-.36-5.37-2.34-15.59-2.44-21.24-.26-5.69.07-8.68 1.94-12.28 1.8-3.71 4.21-5.51 9.32-9.43 5.19-4.11 17.25-9.15 21.6-14.15 4.14-5.04 2.99-9.54 3.93-15.59.83-6.19.36-16.16 1.94-20.73 1.62-4.61 4.29-4.18 7.85-6.63 3.53-2.59 9.94-5.79 13.25-8.49 3.2-2.81 5.22-4.83 5.9-8 .51-3.31-2.12-6.76-2.48-11.34-.58-4.605-1.37-11.949 0-16.053 1.4-4.104 3.35-5.832 8.35-8.496 4.97-2.844 14.04-5.184 21.1-7.992 6.91-2.844 15.84-4.824 20.12-9 4.03-4.32 4.64-11.088 4.9-16.272.21-5.328-1.08-10.404-3.46-15.084-2.41-4.752-5-11.196-11.27-13.212-6.59-2.124-17.71-.648-26.96.936-9.25 1.512-20.52 4.392-27.97 8.496-7.56 4.104-13.58 9.252-16.67 15.588-3.17 6.229-3.78 13.356-1.98 21.672-12.46 3.204-21.57 7.092-27.47 11.808-5.94 4.752-6.98 10.476-7.85 16.056-.93 5.436 1.55 11.913 2.45 16.523.79 4.47 1.62 7.92 2.48 10.37-7.7 3.64-14.109 7.45-19.617 11.3-5.616 3.82-10.908 7.06-13.248 11.81-2.34 4.79-1.44 11.27-.504 16.53.936 5.18 2.772 9.72 5.904 14.14-11.412 1.77-21.492 4.97-30.924 9.9-9.468 4.83-19.044 10.91-24.984 19.37s-8.316 20.74-10.332 31.14c-2.088 10.37-2.736 20.41-1.944 30.67-5.4 2.7-9.072 6.74-11.304 12.39-2.34 5.61-3.636 11.12-1.944 21.24 1.764 10.11 10.26 29.73 12.276 39.13 1.8 9.25-1.08 10.08-1.008 16.52.108 6.34.972 14.87 1.476 21.71.397 6.73.72 12.85.972 18.65z" fill="#dba646"/><path d="M103.65 209.1c-3.49.79-13.863 5.36-21.099 10.37-7.38 4.97-18.072 12.2-22.068 19.37-3.96 7.2-3.06 16.84-1.476 23.11 1.512 6.12 6.12 11.12 10.764 13.21 4.644 1.84 15.264-.76 16.704-1.4 1.224-.76-5.76-1.55-8.856-2.38-3.276-.79-7.236.47-9.792-2.34-2.556-3.06-4.644-10.04-4.896-15.12-.288-5.15-.072-10.22 3.42-15.08s10.98-9.62 17.172-13.68c5.976-4.18 15.732-8.18 19.117-10.88 3.35-2.84 4.28-6.01 1.01-5.18zm-53.966-18.86c-2.484.64-7.056 2.41-9.828 4.71-2.808 2.05-6.048 6.63-6.372 8.03-.324 1.33 1.944 1.15 4.428 0 2.376-1.3 6.984-5.76 9.792-7.56 2.7-1.98 5.94-2.92 6.372-3.78.287-.97-2.016-1.94-4.392-1.4zM151.71 483.6c1.83 2.45 7.23 7.81 11.77 10.84 4.32 2.95 12.13 6.48 14.69 7.09 2.48.5 2.7-1.59.5-3.78-2.34-2.31-9.32-6.37-13.71-9.43-4.43-3.24-10.05-8.18-12.28-8.97-2.3-.83-2.77 1.69-.97 4.25zm31.86 17.46c-1.59.07 1.37 4.93 3.45 6.12 2.06 1.01 9.26 1.01 8.82 0-.64-1.19-10.8-6.05-12.27-6.12zM168.38 89.256c-3.75 1.692-16.24 10.62-22.07 15.554-5.94 4.82-10.69 9-12.75 13.21-2.01 4.03-1.76 9.76.47 11.34 2.13 1.51 10.8-1.15 12.28-1.87 1.37-.79-2.16-2.67-3.93-2.85-1.87-.25-6.15 2.63-6.87 1.41-.83-1.44-.29-6.16 2.45-9.43 2.77-3.32 8.6-6.77 13.75-10.37 5.04-3.75 13.25-8.498 16.16-11.342 2.81-2.988 4-7.236.51-5.652zm45.61-63.216c.11 1.404 3.85 3.456 5.4 6.588 1.33 3.06 2.77 8.064 2.95 11.808.14 3.672-.47 7.488-1.98 9.9-1.73 2.268-6.77 2.7-7.34 3.78-.54.972 1.83 2.772 3.92 2.34 2.05-.612 6.01-2.52 7.85-5.184 1.55-2.808 2.19-6.552 1.94-10.836-.29-4.356-2.12-11.232-3.42-14.652-1.4-3.42-2.88-5.076-4.43-5.652-1.69-.612-4.89.396-4.89 1.908z"/><path d="M442.05 116.15c3.85-3.21 6.26-6.91 7.38-11.81 1.11-4.968.79-12.528-.97-16.992-1.91-4.5-4.76-5.832-10.34-9.432-5.76-3.672-17.85-8.82-23.5-12.24-5.69-3.384-6.27-3.852-10.34-8.496-4.32-4.896-8.1-13.788-14.68-20.304-6.7-6.588-17.9-14.868-24.56-18.864-6.66-4.032-10.15-4.608-15.19-5.184-5.25-.576-10.58 2.304-15.69 1.404-5.15-1.08-8.86-5.868-14.73-7.56-6.01-1.764-12.6-2.88-20.59-2.808-8.1-.072-18.58.54-26.96 2.808-8.43 2.16-17.07 6.048-22.58 10.404-5.43 4.356-8.82 10.332-10.29 15.552-1.66 5.112-.04 11.808.97 15.084.86 3.06 1.48 3.672 4.9 3.78 3.49.036 9.46-3.132 15.69-3.276 6.05-.432 13.72.144 20.63 1.872 6.77 1.764 15.41 6.048 20.09 8.964 4.57 2.808 6.05 3.996 7.34 8.028 1.15 4.032.18 9.036 0 15.552-.39 6.3-1.8 16.236-1.44 22.178.43 5.79.72 10.04 3.93 12.74 3.09 2.49 10.08 1.95 14.68 2.85 4.36.9 7.53-.44 12.28 2.8 4.9 3.24 13.79 11.24 16.67 16.06 2.73 4.61-.61 6.73-.47 11.81-.14 5.07-1.15 12.96.47 18.39 1.58 5.26 5.43 9.44 9.32 13.22 3.93 3.6 11.2 5.29 13.75 8.96 2.31 3.64.62 7.24.47 12.74-.29 5.51-2.45 14.15-1.47 19.8.97 5.58 4.21 10.08 7.38 13.22 3.13 2.95 7.02 4.42 11.26 4.71 4.07.15 8.54-1.22 13.25-3.27 4.68-2.2 9.54-6.99 14.73-8.97 5.22-1.98 11.95-3.53 16.16-2.84 4 .65 6.59 3.17 8.35 6.59 1.77 3.31 2.96 9.9 2.45 13.24-.61 3.28-4.79 6.02-5.87 6.12-1.15-.1-1.29-3.49-1.01-6.12.15-2.7 2.56-6.69 1.98-9.46-.75-2.85-3.09-6.3-5.9-7.06-2.95-.79-7.23.68-10.76 2.34-3.46 1.55-6.74 3.96-9.83 7.09 3.45 3.67 6.12 8.03 7.85 13.21 1.73 5.04 2.73 10.12 2.44 17.46-.57 7.35-3.13 19.44-4.89 26.43-1.84 6.84-4.93 10.04-5.4 14.61-.51 4.47.86 8.43 2.45 12.28 1.44 3.74 3.56 7.2 6.37 10.37-4.79 4.71-7.85 9.47-9.33 14.65-1.58 5.11-.21 10.4.51 16.02.75 5.65 1.37 11.02 3.92 17.46 2.49 6.41 7.56 13.03 10.8 20.3 3.21 7.17 6.19 15.16 7.85 22.18 1.37 6.91 2.52 13.43.97 18.86-1.72 5.26-8.82 11.78-10.29 12.75-1.48.86.79-4.57 1.94-7.56 1.19-3.13 4.5-5.73 4.93-10.84.29-5.18-.79-13.61-2.95-19.83-2.27-6.27-5.65-11.99-10.29-17.46-4.43 10.26-9.62 19.97-15.7 29.73-6.08 9.69-12.81 19.59-20.59 28.19-7.99 8.46-16.78 15.55-26.5 22.64-9.9 7.13-24.37 13.86-31.89 19.37-7.42 5.29-10.19 7.89-12.75 12.24-2.88 4.29-4.89 9.29-3.42 13.21 1.51 3.89 4 8 12.75 9.94 8.67 1.76 24.94 2.59 39.23.94 14.26-1.8 32.66-9.33 45.62-11.34 12.74-2.06 18.36-2.09 30.88-.94 12.53 1.15 32.08 5.76 43.67 7.56 11.45 1.69 18.15 3.31 24.52 2.34 6.34-1.12 10.4-3.46 12.74-8.96 1.98-5.73 1.34-15.84 0-24.52-1.51-8.82-4.82-19.19-7.85-27.36-3.02-8.17-6.15-15.16-9.79-21.24 6.27-12.82 9.72-23.58 10.8-32.58.87-9.07-3.24-13.18-4.93-21.2-1.69-8.07-5.4-16.89-4.9-26.9.44-10.22 3.17-24.26 7.38-33.51 4.07-9.33 13.9-14.62 17.14-21.71 3.17-7.2 5.4-12.13 1.98-20.77-3.67-8.75-16.27-22.93-23.08-30.89-6.8-8.03-12.63-13.36-17.64-16.52 2.16-9.72 3.03-19.77 2.45-30.68-.61-11.08-1.08-22.71-5.87-34.45-4.89-11.81-15.08-24.15-23.07-35.39-8.1-11.34-16.31-21.63-25.02-31.71z" fill="#dba646"/><path d="M362.13 159.2c-.29 1.98.11 7.89 1.47 11.31 1.3 3.24 3.42 6.12 6.38 8.49 2.91 2.31 9.72 5.73 11.26 5.69 1.44-.25-.25-3.92-2.44-6.15-2.24-2.2-8.57-3.86-10.8-7.06-2.31-3.42-2.09-10.73-2.96-12.74-1-2.02-2.77-1.59-2.91.46zm21.56 30.68c-.36 1.11.15 3.63.97 4.24.65.47 3.1.11 3.46-.93.36-1.23-.83-5.11-1.48-5.69-.79-.58-2.7 1.19-2.95 2.38zM246.35 42.672c2.27-1.224 6.3-2.7 10.3-3.312 3.92-.648 9.11-1.26 12.78-.468 3.56.756 8.28 3.816 8.31 4.716-.14.792-5.72-.036-8.82 0-3.13-.18-6.4-.937-9.82-.468-3.6.468-8.07 2.664-10.77 3.276-2.73.468-4.61.612-4.93 0-.4-.684.72-2.628 2.95-3.744zm35.5 2.736c.79.792 3.31 1.692 4.25 1.44.75-.36 1.83-2.484 1-3.312-.86-.936-4.96-2.088-5.79-1.8-.87.324-.36 2.7.54 3.672zM438.12 293.92c.72 3.31 5.15 8.67 5.91 15.55.5 6.87-.11 18-1.98 25.02-1.87 6.84-8.43 13.71-8.82 16.05-.51 2.16 3.89 1.37 6.37-2.37 2.45-3.85 6.95-12.53 8.35-19.8 1.33-7.31.79-17.17-.5-23.62-1.51-6.55-6.27-13.25-7.85-15.08-1.66-1.8-2.2.86-1.48 4.25zm-6.58-10.05c.18 1.12 1.87 3.17 2.84 3.39.86.14 2.81-1.23 2.63-2.31-.29-1.22-3.03-4.28-3.93-4.46-1.08-.18-1.69 2.19-1.54 3.38zm-3.21 70.56c-1.08.69-1.98 3.1-1.73 4.03.29.87 2.34 1.77 3.39 1.16.97-.83 2.3-4.65 2.19-5.48-.32-.82-2.95-.54-3.85.29zm-99.07 160.31c4.25-1.12 18.86-8.78 23.04-11.34 4.03-2.63 2.95-4.14 1.48-4.25-1.7-.14-6.27 1.48-10.8 3.31-4.54 1.77-13.86 4.97-16.17 7.1-2.45 2.08-1.73 6.08 2.45 5.18zm-194.4-203.15c2.52-.97 11.02-7.02 14.94-10.8 4-3.85 8.86-11.34 8.32-11.63-.9-.32-8.9 7.17-12.89 9.98-4.07 2.77-9.11 4.46-10.8 6.62-1.84 2.12-2.16 6.52.43 5.83zm234.18-13.32c1.51 2.56 7.06 8.57 9.97 10.8 2.74 2.05 6.52 2.7 6.63 1.66-.04-1.23-3.64-5.47-6.23-8.28-2.7-2.92-7.42-7.63-9.15-8.32-1.83-.65-2.66 1.51-1.22 4.14z"/></g></svg>